{"title":"Amarcord.1973.BluRay.1080p.AC3.x264-CHD","uid":6487346,"size":13192530039,"categoryP":"video","categoryS":"hd___movies","magnet":"?xt=urn:btih:5ff43a1badc7e4af4c8e0f875cf11df62f3dec65&amp;dn=Amarcord.1973.BluRay.1080p.AC3.x264-CHD&amp;tr=udp%3A%2F%2Ftracker.openbittorrent.com%3A80&amp;tr=udp%3A%2F%2Fopen.demonii.com%3A1337&amp;tr=udp%3A%2F%2Ftracker.coppersurfer.tk%3A6969&amp;tr=udp%3A%2F%2Fexodus.desync.com%3A6969","seeders":5,"leechers":3,"uploader":"TPBAgri","files":-1,"time":1308750158,"description":"A year in the life of a small Italian coastal town in the nineteen-thirties, as is recalled by a director with a superstar's access to the resources of the Italian film industry and a piper's command over our imaginations. Federico Fellini's film combines the free form and make-believe splendor with the comic, bittersweet feeling for character and narrative we remember from some of his best films of the 1950s. The town in the film is based on Rimini, where Mr. Fellini grew up. Yet there is now something magical, larger-than-life about the town, its citizens and many of the things that happen to them.\n\n\n\n\nVideo\nID : 1\nFormat : AVC\nFormat/Info : Advanced Video Codec\nFormat profile : &lt;a class=&quot;__cf_email__&quot; href=&quot;/cdn-cgi/l/email-protection&quot; data-cfemail=&quot;a5edccc2cde5e9918b94&quot;&gt;[email&amp;#160;protected]&lt;/a&gt;&lt;script cf-hash='f9e31' type=&quot;text/javascript&quot;&gt;\n/* &lt;![CDATA[ */!function(){try{var t=&quot;currentScript&quot;in document?document.currentScript:function(){for(var t=document.getElementsByTagName(&quot;script&quot;),e=t.length;e--;)if(t[e].getAttribute(&quot;cf-hash&quot;))return t[e]}();if(t&amp;&amp;t.previousSibling){var e,r,n,i,c=t.previousSibling,a=c.getAttribute(&quot;data-cfemail&quot;);if(a){for(e=&quot;&quot;,r=parseInt(a.substr(0,2),16),n=2;a.length-n;n+=2)i=parseInt(a.substr(n,2),16)^r,e+=String.fromCharCode(i);e=document.createTextNode(e),c.parentNode.replaceChild(e,c)}}}catch(u){}}();/* ]]&gt; */&lt;/script&gt;\nFormat settings, CABAC : Yes\nFormat settings, ReFrames : 4 frames\nMuxing mode : Container profile=&lt;a class=&quot;__cf_email__&quot; href=&quot;/cdn-cgi/l/email-protection&quot; data-cfemail=&quot;95c0fbfefbfae2fbd5a1bba4&quot;&gt;[email&amp;#160;protected]&lt;/a&gt;&lt;script cf-hash='f9e31' type=&quot;text/javascript&quot;&gt;\n/* &lt;![CDATA[ */!function(){try{var t=&quot;currentScript&quot;in document?document.currentScript:function(){for(var t=document.getElementsByTagName(&quot;script&quot;),e=t.length;e--;)if(t[e].getAttribute(&quot;cf-hash&quot;))return t[e]}();if(t&amp;&amp;t.previousSibling){var e,r,n,i,c=t.previousSibling,a=c.getAttribute(&quot;data-cfemail&quot;);if(a){for(e=&quot;&quot;,r=parseInt(a.substr(0,2),16),n=2;a.length-n;n+=2)i=parseInt(a.substr(n,2),16)^r,e+=String.fromCharCode(i);e=document.createTextNode(e),c.parentNode.replaceChild(e,c)}}}catch(u){}}();/* ]]&gt; */&lt;/script&gt;\nCodec ID : V_MPEG4/ISO/AVC\nDuration : 2h 3mn\nBit rate : 13.5 Mbps\nNominal bit rate : 13.7 Mbps\nWidth : 1 920 pixels\nHeight : 1 036 pixels\nDisplay aspect ratio : 1.853\nFrame rate : 23.976 fps\nResolution : 8 bits\nColorimetry : 4:2:0\nScan type : Progressive\nBits/(Pixel*Frame) : 0.282\nStream size : 11.6 GiB (95%)\n\nAudio\nID : 2\nFormat : AC-3\nFormat/Info : Audio Coding 3\nCodec ID : A_AC3\nDuration : 2h 3mn\nBit rate mode : Constant\nBit rate : 448 Kbps\nChannel(s) : 1 channel\nChannel positions : C\nSampling rate : 48.0 KHz\nStream size : 397 MiB (3%)\nTitle : Italian AC3 1.0 448Kbps\nLanguage : Italian","torrent":{"xt":"urn:btih:5ff43a1badc7e4af4c8e0f875cf11df62f3dec65","amp;dn":"Amarcord.1973.BluRay.1080p.AC3.x264-CHD","amp;tr":["udp%3A%2F%2Ftracker.openbittorrent.com%3A80","udp%3A%2F%2Fopen.demonii.com%3A1337","udp%3A%2F%2Ftracker.coppersurfer.tk%3A6969","udp%3A%2F%2Fexodus.desync.com%3A6969"],"infoHash":"5ff43a1badc7e4af4c8e0f875cf11df62f3dec65","infoHashBuffer":{"type":"Buffer","data":[95,244,58,27,173,199,228,175,76,142,15,135,92,241,29,246,47,61,236,101]},"announce":[],"urlList":[]}}